<?xml version="1.0" encoding="UTF-8"?>
<svg id="Layer_2" data-name="Layer 2" xmlns="http://www.w3.org/2000/svg" viewBox="0 0 1911.29 859.85">
  <defs>
    <style>
      .cls-1 {
        fill: #86b277;
        fill-rule: evenodd;
      }

      .cls-1, .cls-2 {
        opacity: .2;
      }

      .cls-2 {
        fill: none;
      }
    </style>
  </defs>
  <g id="Layer_1-2" data-name="Layer 1">
    <path class="cls-1" d="M2.97,362.39c8.41-20.85,32.12-30.93,52.97-22.52,20.85,8.41,30.93,32.13,22.52,52.97-8.41,20.85-32.13,30.93-52.97,22.52-20.85-8.41-30.93-32.12-22.52-52.97"/>
    <path class="cls-1" d="M459.84,333.21c5.43-13.46,20.86-19.93,34.47-14.44,13.61,5.49,20.24,20.85,14.81,34.32-5.43,13.46-20.86,19.93-34.47,14.44-13.61-5.49-20.24-20.85-14.81-34.32"/>
    <path class="cls-1" d="M473.44,407.86c4.2-10.42,16.06-15.46,26.49-11.26,10.42,4.2,15.46,16.06,11.26,26.49-4.2,10.42-16.06,15.46-26.49,11.26-10.42-4.2-15.46-16.06-11.26-26.49"/>
    <path class="cls-1" d="M70.7,429.68c5.49-13.61,20.97-20.19,34.58-14.7,13.61,5.49,20.19,20.97,14.7,34.58-5.49,13.61-20.97,20.19-34.58,14.7-13.61-5.49-20.19-20.97-14.7-34.58"/>
    <path class="cls-1" d="M349.38,451.78c7.59-18.82,28.88-27.97,47.56-20.44,18.67,7.53,27.66,28.9,20.07,47.72-7.59,18.82-28.88,27.97-47.56,20.44-18.67-7.53-27.66-28.9-20.07-47.72"/>
    <path class="cls-1" d="M516.56,397.45c7.59-18.82,28.88-27.97,47.56-20.44,18.67,7.53,27.66,28.9,20.07,47.72-7.59,18.82-28.88,27.97-47.56,20.44-18.67-7.53-27.66-28.9-20.07-47.72"/>
    <path class="cls-1" d="M290.12,317.33c-22.07-26.17-18.75-65.28,7.42-87.36,26.17-22.07,65.28-18.75,87.36,7.42,22.07,26.17,18.75,65.28-7.42,87.36-26.17,22.07-65.28,18.75-87.36-7.42"/>
    <path class="cls-1" d="M131.59,508.63c-14.26-16.9-11.96-42.29,5.12-56.7,17.08-14.41,42.49-12.39,56.75,4.51,14.26,16.9,11.96,42.29-5.12,56.7-17.08,14.41-42.49,12.39-56.75-4.51"/>
    <path class="cls-1" d="M864.21,634.96c-11.04-13.09-9.38-32.64,3.71-43.68,13.09-11.04,32.64-9.38,43.68,3.71,11.04,13.09,9.38,32.64-3.71,43.68-13.09,11.04-32.64,9.38-43.68-3.71"/>
    <path class="cls-1" d="M703.53,289.7c-12.97-15.38-11.02-38.37,4.36-51.34,15.38-12.97,38.37-11.02,51.34,4.36,12.97,15.38,11.02,38.37-4.36,51.34-15.38,12.97-38.37,11.02-51.34-4.36"/>
    <path class="cls-1" d="M104.36,364.19c-14.41-17.08-12.24-42.61,4.84-57.02,17.08-14.41,42.61-12.24,57.02,4.84,14.41,17.08,12.24,42.61-4.84,57.02-17.08,14.41-42.61,12.24-57.02-4.84"/>
    <path class="cls-1" d="M196.62,427.14c-19.93-23.63-17.08-58.81,6.37-78.59,23.45-19.77,58.61-16.65,78.53,6.98,19.93,23.63,17.08,58.81-6.37,78.59-23.45,19.77-58.61,16.65-78.53-6.98"/>
    <path class="cls-1" d="M451.72,474.31c5.14-12.74,19.63-18.9,32.37-13.76,12.74,5.14,18.9,19.63,13.76,32.37-5.14,12.74-19.63,18.9-32.37,13.76-12.74-5.14-18.9-19.63-13.76-32.37"/>
    <path class="cls-1" d="M134.66,259.9c3.55-8.79,13.55-13.04,22.34-9.5,8.79,3.55,13.04,13.55,9.5,22.34-3.55,8.79-13.55,13.04-22.34,9.5-8.79-3.55-13.04-13.55-9.5-22.34"/>
    <path class="cls-1" d="M310.07,287.12c3.35-8.32,12.82-12.34,21.13-8.98,8.32,3.35,12.34,12.82,8.98,21.13-3.35,8.32-12.82,12.34-21.13,8.98-8.32-3.35-12.34-12.82-8.98-21.13"/>
    <path class="cls-1" d="M731.24,484.9c4.64-11.5,17.65-17.09,29.07-12.49,11.41,4.6,16.9,17.66,12.26,29.16-4.64,11.5-17.65,17.09-29.07,12.49-11.41-4.6-16.9-17.66-12.26-29.16"/>
    <path class="cls-1" d="M726.68,396.4c4.64-11.5,17.65-17.09,29.07-12.49,11.41,4.6,16.9,17.66,12.26,29.16-4.64,11.5-17.65,17.09-29.07,12.49-11.41-4.6-16.9-17.66-12.26-29.16"/>
    <path class="cls-1" d="M549.09,310.02c-8.71-10.33-7.31-25.84,3.13-34.65,10.44-8.81,25.97-7.57,34.68,2.76,8.71,10.33,7.31,25.84-3.13,34.65-10.44,8.81-25.97,7.57-34.68-2.76"/>
    <path class="cls-1" d="M398.62,393.63c-6.75-8-5.73-19.95,2.27-26.69,8-6.75,19.95-5.73,26.69,2.27,6.75,8,5.73,19.95-2.27,26.69-8,6.75-19.95,5.73-26.69-2.27"/>
    <path class="cls-1" d="M624.63,449.78c-6.75-8-5.73-19.95,2.27-26.69,8-6.75,19.95-5.73,26.69,2.27,6.75,8,5.73,19.95-2.27,26.69-8,6.75-19.95,5.73-26.69-2.27"/>
    <path class="cls-1" d="M212.21,270.56c-10.49-12.44-8.91-31.04,3.53-41.53,12.44-10.49,31.04-8.91,41.53,3.53,10.49,12.44,8.91,31.04-3.53,41.53-12.44,10.49-31.04,8.91-41.53-3.53"/>
    <path class="cls-1" d="M576.76,381.12c-16.2-19.21-13.88-47.81,5.18-63.88,19.06-16.08,47.64-13.54,63.84,5.67,16.2,19.21,13.88,47.81-5.18,63.88-19.06,16.08-47.64,13.54-63.84-5.67"/>
    <path class="cls-1" d="M791.02,380.77c8.41-20.85,32.12-30.93,52.97-22.52,20.85,8.41,30.93,32.13,22.52,52.97-8.41,20.85-32.13,30.93-52.97,22.52-20.85-8.41-30.93-32.12-22.52-52.97"/>
    <path class="cls-1" d="M1185.88,352.49c5.43-13.46,20.86-19.93,34.47-14.44,13.61,5.49,20.24,20.85,14.81,34.32-5.43,13.46-20.86,19.93-34.47,14.44-13.61-5.49-20.24-20.85-14.81-34.32"/>
    <path class="cls-1" d="M1222.55,428.34c4.2-10.42,16.06-15.46,26.49-11.26,10.42,4.2,15.46,16.06,11.26,26.49-4.2,10.42-16.06,15.46-26.49,11.26-10.42-4.2-15.46-16.06-11.26-26.49"/>
    <path class="cls-1" d="M632.07,248.18c4.2-10.42,16.06-15.46,26.49-11.26,10.42,4.2,15.46,16.06,11.26,26.49-4.2,10.42-16.06,15.46-26.49,11.26-10.42-4.2-15.46-16.06-11.26-26.49"/>
    <path class="cls-1" d="M844.5,453.12c5.49-13.61,20.97-20.19,34.58-14.7,13.61,5.49,20.19,20.97,14.7,34.58-5.49,13.61-20.97,20.19-34.58,14.7-13.61-5.49-20.19-20.97-14.7-34.58"/>
    <path class="cls-1" d="M742.25,324.11c4.55-11.27,17.37-16.72,28.64-12.18,11.27,4.55,16.72,17.37,12.18,28.64-4.55,11.27-17.37,16.72-28.64,12.18-11.27-4.55-16.72-17.37-12.18-28.64"/>
    <path class="cls-1" d="M1135.82,468.39c7.59-18.82,28.88-27.97,47.56-20.44,18.67,7.53,27.66,28.9,20.07,47.72-7.59,18.82-28.88,27.97-47.56,20.44-18.67-7.53-27.66-28.9-20.07-47.72"/>
    <path class="cls-1" d="M1061.57,339.4c-22.07-26.17-18.75-65.28,7.42-87.36,26.17-22.07,65.28-18.75,87.36,7.42,22.07,26.17,18.75,65.28-7.42,87.36-26.17,22.07-65.28,18.75-87.36-7.42"/>
    <path class="cls-1" d="M905.39,532.07c-14.26-16.9-11.96-42.29,5.12-56.7,17.08-14.41,42.49-12.39,56.75,4.51,14.26,16.9,11.96,42.29-5.12,56.7-17.08,14.41-42.49,12.39-56.75-4.51"/>
    <path class="cls-1" d="M834.1,302.16c-11.04-13.09-9.38-32.64,3.71-43.68,13.09-11.04,32.64-9.38,43.68,3.71,11.04,13.09,9.38,32.64-3.71,43.68-13.09,11.04-32.64,9.38-43.68-3.71"/>
    <path class="cls-1" d="M866.62,387.03c-14.41-17.08-12.24-42.61,4.84-57.02,17.08-14.41,42.61-12.24,57.02,4.84,14.41,17.08,12.24,42.61-4.84,57.02-17.08,14.41-42.61,12.24-57.02-4.84"/>
    <path class="cls-1" d="M1002.68,451.01c-19.93-23.63-17.08-58.81,6.37-78.59,23.45-19.77,58.61-16.65,78.53,6.98,19.93,23.63,17.08,58.81-6.37,78.59-23.45,19.77-58.61,16.65-78.53-6.98"/>
    <path class="cls-1" d="M1226.63,490.33c5.14-12.74,19.63-18.9,32.37-13.76,12.74,5.14,18.9,19.63,13.76,32.37-5.14,12.74-19.63,18.9-32.37,13.76-12.74-5.14-18.9-19.63-13.76-32.37"/>
    <path class="cls-1" d="M896.92,282.75c3.55-8.79,13.55-13.04,22.34-9.5,8.79,3.55,13.04,13.55,9.5,22.34-3.55,8.79-13.55,13.04-22.34,9.5-8.79-3.55-13.04-13.55-9.5-22.34"/>
    <path class="cls-1" d="M1104.58,310.39c3.35-8.32,12.82-12.34,21.13-8.98,8.32,3.35,12.34,12.82,8.98,21.13-3.35,8.32-12.82,12.34-21.13,8.98-8.32-3.36-12.34-12.82-8.98-21.13"/>
    <path class="cls-1" d="M1433.9,236.28c3.02-7.48,11.49-11.12,18.91-8.13,7.43,3,11,11.49,7.98,18.98-3.02,7.48-11.49,11.12-18.91,8.13-7.43-3-11-11.49-7.98-18.98"/>
    <path class="cls-1" d="M1286.66,329.89c-8.71-10.33-7.31-25.84,3.13-34.65,10.44-8.81,25.97-7.57,34.68,2.76,8.71,10.33,7.31,25.84-3.13,34.65-10.44,8.81-25.97,7.57-34.68-2.76"/>
    <path class="cls-1" d="M1136.19,413.51c-6.75-8-5.73-19.95,2.27-26.69,8-6.75,19.95-5.73,26.69,2.27,6.75,8,5.73,19.95-2.27,26.69-8,6.75-19.95,5.73-26.69-2.27"/>
    <path class="cls-1" d="M960.22,298.46c-10.49-12.44-8.91-31.04,3.53-41.53,12.44-10.49,31.04-8.91,41.53,3.53,10.49,12.44,8.91,31.04-3.53,41.53-12.44,10.49-31.04,8.91-41.53-3.53"/>
    <path class="cls-1" d="M1269.68,433.22c-18.58-22.03-15.92-54.83,5.94-73.27,21.86-18.44,54.64-15.53,73.22,6.5,18.58,22.03,15.92,54.83-5.94,73.27-21.86,18.44-54.64,15.53-73.22-6.5"/>
    <path class="cls-1" d="M1359.51,686.84c-8.41,20.85-32.12,30.93-52.97,22.52-20.85-8.41-30.93-32.13-22.52-52.97,8.41-20.85,32.13-30.93,52.97-22.52,20.85,8.41,30.93,32.12,22.52,52.97"/>
    <path class="cls-1" d="M250.9,548.35c-5.43,13.46-20.86,19.93-34.47,14.44-13.61-5.49-20.24-20.85-14.81-34.32,5.43-13.46,20.86-19.93,34.47-14.44,13.61,5.49,20.24,20.85,14.81,34.32"/>
    <path class="cls-1" d="M971.67,642.31c-4.2,10.42-16.06,15.46-26.49,11.26-10.42-4.2-15.46-16.06-11.26-26.49,4.2-10.42,16.06-15.46,26.49-11.26,10.42,4.2,15.46,16.06,11.26,26.49"/>
    <path class="cls-1" d="M1304.24,602.16c-5.49,13.61-20.97,20.19-34.58,14.7-13.61-5.49-20.19-20.97-14.7-34.58,5.49-13.61,20.97-20.19,34.58-14.7,13.61,5.49,20.19,20.97,14.7,34.58"/>
    <path class="cls-1" d="M1093.61,592.39c-7.59,18.82-28.88,27.97-47.56,20.44-18.67-7.53-27.66-28.9-20.07-47.72,7.59-18.82,28.88-27.97,47.56-20.44,18.67,7.53,27.66,28.9,20.07,47.72"/>
    <path class="cls-1" d="M847.45,655.21c-7.59,18.82-28.88,27.97-47.56,20.44-18.67-7.53-27.66-28.9-20.07-47.72,7.59-18.82,28.88-27.97,47.56-20.44,18.67,7.53,27.66,28.9,20.07,47.72"/>
    <path class="cls-1" d="M550.25,660.03c22.07,26.17,18.75,65.28-7.42,87.36-26.17,22.07-65.28,18.75-87.36-7.42-22.07-26.17-18.75-65.28,7.42-87.36,26.17-22.07,65.28-18.75,87.36,7.42"/>
    <path class="cls-1" d="M1208.6,524.33c14.26,16.9,11.96,42.29-5.12,56.7-17.08,14.41-42.49,12.39-56.75-4.51-14.26-16.9-11.96-42.29,5.12-56.7,17.08-14.41,42.49-12.39,56.75,4.51"/>
    <path class="cls-1" d="M886.12,661.13c11.04,13.09,9.38,32.64-3.71,43.68-13.09,11.04-32.64,9.38-43.68-3.71-11.04-13.09-9.38-32.64,3.71-43.68,13.09-11.04,32.64-9.38,43.68,3.71"/>
    <path class="cls-1" d="M1110.33,743.78c12.97,15.38,11.02,38.37-4.36,51.34-15.38,12.97-38.37,11.02-51.34-4.36-12.97-15.38-11.02-38.37,4.36-51.34,15.38-12.97,38.37-11.02,51.34,4.36"/>
    <path class="cls-1" d="M161.34,643.78c14.41,17.08,12.24,42.61-4.84,57.02-17.08,14.41-42.61,12.24-57.02-4.84-14.41-17.08-12.24-42.61,4.84-57.02,17.08-14.41,42.61-12.24,57.02,4.84"/>
    <path class="cls-1" d="M670.04,704.66c19.93,23.63,17.08,58.81-6.37,78.59-23.45,19.77-58.61,16.65-78.53-6.98-19.93-23.63-17.08-58.81,6.37-78.59,23.45-19.77,58.61-16.65,78.53,6.98"/>
    <path class="cls-1" d="M899.67,551.78c-5.14,12.74-19.63,18.9-32.37,13.76-12.74-5.14-18.9-19.63-13.76-32.37,5.14-12.74,19.63-18.9,32.37-13.76,12.74,5.14,18.9,19.63,13.76,32.37"/>
    <path class="cls-1" d="M774.2,688.38c-3.55,8.79-13.55,13.04-22.34,9.5-8.79-3.55-13.04-13.55-9.5-22.34,3.55-8.79,13.55-13.04,22.34-9.5,8.79,3.55,13.04,13.55,9.5,22.34"/>
    <path class="cls-1" d="M342.65,393.86c-3.35,8.32-12.82,12.34-21.13,8.98-8.32-3.35-12.34-12.82-8.98-21.13,3.35-8.32,12.82-12.34,21.13-8.98,8.32,3.35,12.34,12.82,8.98,21.13"/>
    <path class="cls-1" d="M550.65,542.94c-4.64,11.5-17.65,17.09-29.07,12.49-11.41-4.6-16.9-17.66-12.26-29.16,4.64-11.5,17.65-17.09,29.07-12.49,11.41,4.6,16.9,17.66,12.26,29.16"/>
    <path class="cls-1" d="M626.69,638.23c-4.64,11.5-17.65,17.09-29.07,12.49-11.41-4.6-16.9-17.66-12.26-29.16,4.64-11.5,17.65-17.09,29.07-12.49,11.41,4.6,16.9,17.66,12.26,29.16"/>
    <path class="cls-1" d="M374.13,631.28c8.71,10.33,7.31,25.84-3.13,34.65-10.44,8.81-25.97,7.57-34.68-2.76-8.71-10.33-7.31-25.84,3.13-34.65,10.44-8.81,25.97-7.57,34.68,2.76"/>
    <path class="cls-1" d="M1035.25,650.26c6.75,8,5.73,19.95-2.27,26.69-8,6.75-19.95,5.73-26.69-2.27-6.75-8-5.73-19.95,2.27-26.69,8-6.75,19.95-5.73,26.69,2.27"/>
    <path class="cls-1" d="M703.05,587.39c6.75,8,5.73,19.95-2.27,26.69-8,6.75-19.95,5.73-26.69-2.27-6.75-8-5.73-19.95,2.27-26.69,8-6.75,19.95-5.73,26.69,2.27"/>
    <path class="cls-1" d="M722.19,678.06c10.49,12.44,8.91,31.04-3.53,41.53-12.44,10.49-31.04,8.91-41.53-3.53-10.49-12.44-8.91-31.04,3.53-41.53,12.44-10.49,31.04-8.91,41.53,3.53"/>
    <path class="cls-1" d="M1454.57,279.01c16.2,19.21,13.88,47.81-5.18,63.88-19.06,16.08-47.64,13.54-63.84-5.67-16.2-19.21-13.88-47.81,5.18-63.88,19.06-16.08,47.64-13.54,63.84,5.67"/>
    <path class="cls-1" d="M707.51,531.06c-8.41,20.85-32.12,30.93-52.97,22.52-20.85-8.41-30.93-32.13-22.52-52.97,8.41-20.85,32.13-30.93,52.97-22.52,20.85,8.41,30.93,32.12,22.52,52.97"/>
    <path class="cls-1" d="M96.65,676.84c-5.43,13.46-20.86,19.93-34.47,14.44-13.61-5.49-20.24-20.85-14.81-34.32,5.43-13.46,20.86-19.93,34.47-14.44,13.61,5.49,20.24,20.85,14.81,34.32"/>
    <path class="cls-1" d="M117.58,605.74c-4.2,10.42-16.06,15.46-26.49,11.26-10.42-4.2-15.46-16.06-11.26-26.49,4.2-10.42,16.06-15.46,26.49-11.26,10.42,4.2,15.46,16.06,11.26,26.49"/>
    <path class="cls-1" d="M1261.1,775.36c-4.2,10.42-16.06,15.46-26.49,11.26-10.42-4.2-15.46-16.06-11.26-26.49,4.2-10.42,16.06-15.46,26.49-11.26,10.42,4.2,15.46,16.06,11.26,26.49"/>
    <path class="cls-1" d="M448.65,580.6c-5.49,13.61-20.97,20.19-34.58,14.7-13.61-5.49-20.19-20.97-14.7-34.58,5.49-13.61,20.97-20.19,34.58-14.7,13.61,5.49,20.19,20.97,14.7,34.58"/>
    <path class="cls-1" d="M1153.14,650.18c-4.55,11.27-17.37,16.72-28.64,12.18-11.27-4.55-16.72-17.37-12.18-28.64,4.55-11.27,17.37-16.72,28.64-12.18,11.27,4.55,16.72,17.37,12.18,28.64"/>
    <path class="cls-1" d="M146.08,573.24c-7.59,18.82-28.88,27.97-47.56,20.44-18.67-7.53-27.66-28.9-20.07-47.72,7.59-18.82,28.88-27.97,47.56-20.44,18.67,7.53,27.66,28.9,20.07,47.72"/>
    <path class="cls-1" d="M1214.88,656.86c22.07,26.17,18.75,65.28-7.42,87.36-26.17,22.07-65.28,18.75-87.36-7.42-22.07-26.17-18.75-65.28,7.42-87.36,26.17-22.07,65.28-18.75,87.36,7.42"/>
    <path class="cls-1" d="M353,502.77c14.26,16.9,11.96,42.29-5.12,56.7-17.08,14.41-42.49,12.39-56.75-4.51-14.26-16.9-11.96-42.29,5.12-56.7,17.08-14.41,42.49-12.39,56.75,4.51"/>
    <path class="cls-1" d="M1052.64,687.78c11.04,13.09,9.38,32.64-3.71,43.68-13.09,11.04-32.64,9.38-43.68-3.71-11.04-13.09-9.38-32.64,3.71-43.68,13.09-11.04,32.64-9.38,43.68,3.71"/>
    <path class="cls-1" d="M1664.63,177.22c14.41,17.08,12.24,42.61-4.84,57.02-17.08,14.41-42.61,12.24-57.02-4.84-14.41-17.08-12.24-42.61,4.84-57.02,17.08-14.41,42.61-12.24,57.02,4.84"/>
    <path class="cls-1" d="M277.95,601.29c19.93,23.63,17.08,58.81-6.37,78.59-23.45,19.77-58.61,16.65-78.53-6.98-19.93-23.63-17.08-58.81,6.37-78.59,23.45-19.77,58.61-16.65,78.53,6.98"/>
    <path class="cls-1" d="M79.4,532.19c-5.14,12.74-19.63,18.9-32.37,13.76-12.74-5.14-18.9-19.63-13.76-32.37,5.14-12.74,19.63-18.9,32.37-13.76,12.74,5.14,18.9,19.63,13.76,32.37"/>
    <path class="cls-1" d="M1910.04,337.22c-3.55,8.79-13.55,13.04-22.34,9.5-8.79-3.55-13.04-13.55-9.5-22.34,3.55-8.79,13.55-13.04,22.34-9.5,8.79,3.55,13.04,13.55,9.5,22.34"/>
    <path class="cls-1" d="M1590.21,223c-3.35,8.32-12.82,12.34-21.13,8.98-8.32-3.35-12.34-12.82-8.98-21.13,3.35-8.32,12.82-12.34,21.13-8.98,8.32,3.36,12.34,12.82,8.98,21.13"/>
    <path class="cls-1" d="M509.39,690.75c-3.02,7.48-11.49,11.12-18.91,8.13-7.43-3-11-11.49-7.98-18.98,3.02-7.48,11.49-11.12,18.91-8.13,7.43,3,11,11.49,7.98,18.98"/>
    <path class="cls-1" d="M790.18,562.57c8.71,10.33,7.31,25.84-3.13,34.65-10.44,8.81-25.97,7.57-34.68-2.76-8.71-10.33-7.31-25.84,3.13-34.65,10.44-8.81,25.97-7.57,34.68,2.76"/>
    <path class="cls-1" d="M215.37,623.07c6.75,8,5.73,19.95-2.27,26.69-8,6.75-19.95,5.73-26.69-2.27-6.75-8-5.73-19.95,2.27-26.69,8-6.75,19.95-5.73,26.69,2.27"/>
    <path class="cls-1" d="M1640.58,263.03c10.49,12.44,8.91,31.04-3.53,41.53-12.44,10.49-31.04,8.91-41.53-3.53-10.49-12.44-8.91-31.04,3.53-41.53,12.44-10.49,31.04-8.91,41.53,3.53"/>
    <path class="cls-1" d="M584.88,573.34c18.58,22.03,15.92,54.83-5.94,73.27-21.86,18.44-54.64,15.53-73.22-6.5-18.58-22.03-15.92-54.83,5.94-73.27,21.86-18.44,54.64-15.53,73.22,6.5"/>
    <path class="cls-1" d="M1510.11,605.67c-8.41,20.85-32.12,30.93-52.97,22.52-20.85-8.41-30.93-32.13-22.52-52.97,8.41-20.85,32.13-30.93,52.97-22.52,20.85,8.41,30.93,32.12,22.52,52.97"/>
    <path class="cls-1" d="M1387.68,619.44c-5.49,13.61-20.97,20.19-34.58,14.7-13.61-5.49-20.19-20.97-14.7-34.58,5.49-13.61,20.97-20.19,34.58-14.7,13.61,5.49,20.19,20.97,14.7,34.58"/>
    <path class="cls-1" d="M1568.24,518.22c-7.59,18.82-28.88,27.97-47.56,20.44-18.67-7.53-27.66-28.9-20.07-47.72,7.59-18.82,28.88-27.97,47.56-20.44,18.67,7.53,27.66,28.9,20.07,47.72"/>
    <path class="cls-1" d="M369.75,659.27c11.04,13.09,9.38,32.64-3.71,43.68-13.09,11.04-32.64,9.38-43.68-3.71-11.04-13.09-9.38-32.64,3.71-43.68,13.09-11.04,32.64-9.38,43.68,3.71"/>
    <path class="cls-1" d="M1175.08,572.77c12.97,15.38,11.02,38.37-4.36,51.34-15.38,12.97-38.37,11.02-51.34-4.36-12.97-15.38-11.02-38.37,4.36-51.34,15.38-12.97,38.37-11.02,51.34,4.36"/>
    <path class="cls-1" d="M1672.77,611.79c-5.14,12.74-19.63,18.9-32.37,13.76-12.74-5.14-18.9-19.63-13.76-32.37,5.14-12.74,19.63-18.9,32.37-13.76,12.74,5.14,18.9,19.63,13.76,32.37"/>
    <path class="cls-1" d="M310.84,686.65c-3.55,8.79-13.55,13.04-22.34,9.5-8.79-3.55-13.04-13.55-9.5-22.34,3.55-8.79,13.55-13.04,22.34-9.5,8.79,3.55,13.04,13.55,9.5,22.34"/>
    <path class="cls-1" d="M1541.11,605.39c-4.64,11.5-17.65,17.09-29.07,12.49-11.41-4.6-16.9-17.66-12.26-29.16,4.64-11.5,17.65-17.09,29.07-12.49,11.41,4.6,16.9,17.66,12.26,29.16"/>
    <path class="cls-1" d="M1593.69,707.08c-4.64,11.5-17.65,17.09-29.07,12.49-11.41-4.6-16.9-17.66-12.26-29.16,4.64-11.5,17.65-17.09,29.07-12.49,11.41,4.6,16.9,17.66,12.26,29.16"/>
    <path class="cls-1" d="M1481.52,453.39c6.75,8,5.73,19.95-2.27,26.69-8,6.75-19.95,5.73-26.69-2.27-6.75-8-5.73-19.95,2.27-26.69,8-6.75,19.95-5.73,26.69,2.27"/>
    <path class="cls-1" d="M1426.23,550.84c16.2,19.21,13.88,47.81-5.18,63.88-19.06,16.08-47.64,13.54-63.84-5.67-16.2-19.21-13.88-47.81,5.18-63.88,19.06-16.08,47.64-13.54,63.84,5.67"/>
    <path class="cls-1" d="M1513.44,683.56c-8.41,20.85-32.12,30.93-52.97,22.52-20.85-8.41-30.93-32.13-22.52-52.97,8.41-20.85,32.13-30.93,52.97-22.52,20.85,8.41,30.93,32.12,22.52,52.97"/>
    <path class="cls-1" d="M1578.77,500.21c-5.43,13.46-20.86,19.93-34.47,14.44-13.61-5.49-20.24-20.85-14.81-34.32,5.43-13.46,20.86-19.93,34.47-14.44,13.61,5.49,20.24,20.85,14.81,34.32"/>
    <path class="cls-1" d="M1588.16,428.51c-4.2,10.42-16.06,15.46-26.49,11.26-10.42-4.2-15.46-16.06-11.26-26.49,4.2-10.42,16.06-15.46,26.49-11.26,10.42,4.2,15.46,16.06,11.26,26.49"/>
    <path class="cls-1" d="M1210,843.21c-5.49,13.61-20.97,20.19-34.58,14.7-13.61-5.49-20.19-20.97-14.7-34.58,5.49-13.61,20.97-20.19,34.58-14.7,13.61,5.49,20.19,20.97,14.7,34.58"/>
    <path class="cls-1" d="M1207.01,514.38c-4.55,11.27-17.37,16.72-28.64,12.18-11.27-4.55-16.72-17.37-12.18-28.64,4.55-11.27,17.37-16.72,28.64-12.18,11.27,4.55,16.72,17.37,12.18,28.64"/>
    <path class="cls-1" d="M1552.93,403.14c-7.59,18.82-28.88,27.97-47.56,20.44-18.67-7.53-27.66-28.9-20.07-47.72,7.59-18.82,28.88-27.97,47.56-20.44,18.67,7.53,27.66,28.9,20.07,47.72"/>
    <path class="cls-1" d="M1630.51,560.75c22.07,26.17,18.75,65.28-7.42,87.36-26.17,22.07-65.28,18.75-87.36-7.42-22.07-26.17-18.75-65.28,7.42-87.36,26.17-22.07,65.28-18.75,87.36,7.42"/>
    <path class="cls-1" d="M1702.17,329.7c14.26,16.9,11.96,42.29-5.12,56.7-17.08,14.41-42.49,12.39-56.75-4.51-14.26-16.9-11.96-42.29,5.12-56.7,17.08-14.41,42.49-12.39,56.75,4.51"/>
    <path class="cls-1" d="M1167.41,521.17c11.04,13.09,9.38,32.64-3.71,43.68-13.09,11.04-32.64,9.38-43.68-3.71-11.04-13.09-9.38-32.64,3.71-43.68,13.09-11.04,32.64-9.38,43.68,3.71"/>
    <path class="cls-1" d="M1028.31,437.1c14.41,17.08,12.24,42.61-4.84,57.02-17.08,14.41-42.61,12.24-57.02-4.84-14.41-17.08-12.24-42.61,4.84-57.02,17.08-14.41,42.61-12.24,57.02,4.84"/>
    <path class="cls-1" d="M1713.87,423.44c19.93,23.63,17.08,58.81-6.37,78.59-23.45,19.77-58.61,16.65-78.53-6.98-19.93-23.63-17.08-58.81,6.37-78.59,23.45-19.77,58.61-16.65,78.53,6.98"/>
    <path class="cls-1" d="M1280.15,713.47c-5.14,12.74-19.63,18.9-32.37,13.76-12.74-5.14-18.9-19.63-13.76-32.37,5.14-12.74,19.63-18.9,32.37-13.76,12.74,5.14,18.9,19.63,13.76,32.37"/>
    <path class="cls-1" d="M1067.81,533.83c-3.55,8.79-13.55,13.04-22.34,9.5-8.79-3.55-13.04-13.55-9.5-22.34,3.55-8.79,13.55-13.04,22.34-9.5,8.79,3.55,13.04,13.55,9.5,22.34"/>
    <path class="cls-1" d="M898.97,448.05c-3.35,8.32-12.82,12.34-21.13,8.98-8.32-3.35-12.34-12.82-8.98-21.13,3.35-8.32,12.82-12.34,21.13-8.98,8.32,3.36,12.34,12.82,8.98,21.13"/>
    <path class="cls-1" d="M1421.72,408.52c-3.02,7.48-11.49,11.12-18.91,8.13-7.43-3-11-11.49-7.98-18.98,3.02-7.48,11.49-11.12,18.91-8.13,7.43,3,11,11.49,7.98,18.98"/>
    <path class="cls-1" d="M1522.48,557.2c8.71,10.33,7.31,25.84-3.13,34.65-10.44,8.81-25.97,7.57-34.68-2.76-8.71-10.33-7.31-25.84,3.13-34.65,10.44-8.81,25.97-7.57,34.68,2.76"/>
    <path class="cls-1" d="M1662.88,444.65c6.75,8,5.73,19.95-2.27,26.69-8,6.75-19.95,5.73-26.69-2.27-6.75-8-5.73-19.95,2.27-26.69,8-6.75,19.95-5.73,26.69,2.27"/>
    <path class="cls-1" d="M935.79,518.92c10.49,12.44,8.91,31.04-3.53,41.53-12.44,10.49-31.04,8.91-41.53-3.53-10.49-12.44-8.91-31.04,3.53-41.53,12.44-10.49,31.04-8.91,41.53,3.53"/>
    <path class="cls-1" d="M1438.74,471.32c15.02,24.6,7.41,56.62-17,71.52-24.41,14.9-56.37,7.05-71.39-17.55-15.02-24.6-7.41-56.62,17-71.52,24.41-14.9,56.37-7.05,71.39,17.55"/>
    <rect class="cls-2" x="505.38" width="1351.35" height="699.37"/>
    <path class="cls-1" d="M1369.45,672.78c3.02-7.48,11.49-11.12,18.91-8.13,7.43,3,11,11.49,7.98,18.98-3.02,7.48-11.49,11.12-18.91,8.13-7.43-3-11-11.49-7.98-18.98"/>
    <path class="cls-1" d="M1662.78,677.09c14.41,17.08,12.24,42.61-4.84,57.02-17.08,14.41-42.61,12.24-57.02-4.84-14.41-17.08-12.24-42.61,4.84-57.02,17.08-14.41,42.61-12.24,57.02,4.84"/>
    <path class="cls-1" d="M1525.76,659.51c-3.35,8.32-12.82,12.34-21.13,8.98-8.32-3.35-12.34-12.82-8.98-21.13,3.35-8.32,12.82-12.34,21.13-8.98,8.32,3.36,12.34,12.82,8.98,21.13"/>
  </g>
</svg>